<svg width="12" height="12" viewBox="0 0 12 12" fill="none" xmlns="http://www.w3.org/2000/svg">
<g clip-path="url(#clip0)">
<path d="M11.0359 1.98479C9.73081 0.68005 7.60769 0.68005 6.30295 1.98479L5.9999 2.28767L5.69702 1.98479C4.39228 0.679874 2.26898 0.679874 0.964237 1.98479C-0.314016 3.26305 -0.322317 5.28921 0.944987 6.69798C2.10085 7.98241 5.50982 10.7574 5.65446 10.8748C5.75265 10.9546 5.8708 10.9935 5.98824 10.9935C5.99213 10.9935 5.99601 10.9935 5.99972 10.9933C6.12122 10.999 6.24361 10.9573 6.34498 10.8748C6.48962 10.7574 9.89894 7.98241 11.0552 6.6978C12.3223 5.28921 12.314 3.26305 11.0359 1.98479ZM10.2675 5.98909C9.3663 6.99025 6.88909 9.0551 5.99972 9.78782C5.11035 9.05527 2.63367 6.99061 1.73264 5.98927C0.848562 5.00665 0.840261 3.60725 1.71339 2.73412C2.15931 2.28837 2.74493 2.06532 3.33054 2.06532C3.91616 2.06532 4.50177 2.2882 4.9477 2.73412L5.61384 3.40027C5.69314 3.47956 5.79309 3.52689 5.898 3.54349C6.06824 3.58005 6.25297 3.53254 6.38542 3.40044L7.05192 2.73412C7.94394 1.84245 9.39491 1.84263 10.2864 2.73412C11.1595 3.60725 11.1512 5.00665 10.2675 5.98909Z" fill="#767676"/>
</g>
<defs>
<clipPath id="clip0">
<rect width="12" height="12" fill="white"/>
</clipPath>
</defs>
</svg>
