<svg width="112" height="28" viewBox="0 0 112 28" fill="none" xmlns="http://www.w3.org/2000/svg">
<circle cx="99" cy="13" r="13" fill="#C32929"/>
<path fill-rule="evenodd" clip-rule="evenodd" d="M14.6706 1.5H14.2041V17.53C14.2041 18.7667 13.8657 19.77 13.1891 20.54C12.5357 21.31 11.5557 21.695 10.2491 21.695C8.9424 21.695 7.9624 21.31 7.30906 20.54C6.65573 19.77 6.32906 18.7667 6.32906 17.53V1.5H0.414062V17.95C0.414062 20.0033 0.845729 21.7067 1.70906 23.06C2.59573 24.39 3.77406 25.3817 5.24406 26.035C6.7374 26.6883 8.40573 27.015 10.2491 27.015C12.0924 27.015 13.7607 26.6883 15.2541 26.035C16.7474 25.3817 17.9257 24.39 18.7891 23.06C19.6757 21.7067 20.1191 20.0033 20.1191 17.95V6.94843L14.6706 1.5ZM23.7301 13.75C23.7301 11.86 24.0567 10.1333 24.7101 8.57C25.1549 7.54235 25.7106 6.60544 26.3772 5.75928L30.7421 10.1242C30.2441 11.1771 29.9951 12.3858 29.9951 13.75C29.9951 15.1967 30.2751 16.48 30.8351 17.6C31.4184 18.6967 32.2351 19.56 33.2851 20.19C34.3351 20.82 35.5484 21.135 36.9251 21.135C38.3251 21.135 39.5384 20.82 40.5651 20.19C40.6152 20.1592 40.6649 20.1279 40.7139 20.096L44.9446 24.3267C44.1127 24.9234 43.2012 25.4228 42.2101 25.825C40.6234 26.455 38.8617 26.77 36.9251 26.77C35.0117 26.77 33.2501 26.455 31.6401 25.825C30.0301 25.1717 28.6301 24.2617 27.4401 23.095C26.2501 21.9283 25.3284 20.5517 24.6751 18.965C24.0451 17.3783 23.7301 15.64 23.7301 13.75ZM33.4752 7.20038L29.3482 3.07341C30.0832 2.60214 30.8705 2.20601 31.7101 1.885C33.3201 1.255 35.0584 0.939999 36.9251 0.939999C38.8151 0.939999 40.5651 1.255 42.1751 1.885C43.7851 2.49167 45.1734 3.36667 46.3401 4.51C47.5301 5.65333 48.4517 7.00667 49.1051 8.57C49.7817 10.1333 50.1201 11.86 50.1201 13.75C50.1201 15.64 49.7934 17.3783 49.1401 18.965C48.7772 19.879 48.3214 20.7233 47.7727 21.4979L43.2382 16.9634C43.6261 16.0009 43.8201 14.9298 43.8201 13.75C43.8201 12.3033 43.5401 11.0317 42.9801 9.935C42.4201 8.815 41.6267 7.94 40.6001 7.31C39.5734 6.68 38.3484 6.365 36.9251 6.365C35.6307 6.365 34.4807 6.64346 33.4752 7.20038ZM60.2102 13.54L58.7052 26H52.4752L56.4302 0.275L66.8952 15.185L77.3252 0.275L81.3152 26H75.0502L73.5802 13.54L66.8952 23.725L60.2102 13.54Z" fill="#222222"/>
</svg>
