<svg width="206" height="17" viewBox="0 0 206 17" fill="none" xmlns="http://www.w3.org/2000/svg">
<path d="M7.62891 9.31543L8.01172 6.7998H5.57812V5.15918C5.57812 4.44824 5.90625 3.79199 7 3.79199H8.12109V1.63184C8.12109 1.63184 7.10938 1.44043 6.15234 1.44043C4.15625 1.44043 2.84375 2.6709 2.84375 4.8584V6.7998H0.601562V9.31543H2.84375V15.4404H5.57812V9.31543H7.62891Z" fill="#222222"/>
<path d="M56.5508 5.59668C57.0977 5.18652 57.5898 4.69434 57.9727 4.12012C57.4805 4.33887 56.9062 4.50293 56.332 4.55762C56.9336 4.20215 57.3711 3.65527 57.5898 2.97168C57.043 3.2998 56.4141 3.5459 55.7852 3.68262C55.2383 3.1084 54.5 2.78027 53.6797 2.78027C52.0938 2.78027 50.8086 4.06543 50.8086 5.65137C50.8086 5.87012 50.8359 6.08887 50.8906 6.30762C48.5117 6.1709 46.3789 5.02246 44.957 3.2998C44.7109 3.70996 44.5742 4.20215 44.5742 4.74902C44.5742 5.7334 45.0664 6.6084 45.8594 7.12793C45.3945 7.10059 44.9297 6.99121 44.5469 6.77246V6.7998C44.5469 8.19434 45.5312 9.34277 46.8438 9.61621C46.625 9.6709 46.3516 9.72559 46.1055 9.72559C45.9141 9.72559 45.75 9.69824 45.5586 9.6709C45.9141 10.8193 46.9805 11.6396 48.2383 11.667C47.2539 12.4326 46.0234 12.8975 44.6836 12.8975C44.4375 12.8975 44.2188 12.8701 44 12.8428C45.2578 13.6631 46.7617 14.1279 48.4023 14.1279C53.6797 14.1279 56.5508 9.78027 56.5508 5.97949C56.5508 5.84277 56.5508 5.7334 56.5508 5.59668Z" fill="#767676"/>
<path d="M100.125 5.2959C98.375 5.2959 96.9805 6.71777 96.9805 8.44043C96.9805 10.1904 98.375 11.585 100.125 11.585C101.848 11.585 103.27 10.1904 103.27 8.44043C103.27 6.71777 101.848 5.2959 100.125 5.2959ZM100.125 10.4912C99.0039 10.4912 98.0742 9.58887 98.0742 8.44043C98.0742 7.31934 98.9766 6.41699 100.125 6.41699C101.246 6.41699 102.148 7.31934 102.148 8.44043C102.148 9.58887 101.246 10.4912 100.125 10.4912ZM104.117 5.18652C104.117 4.77637 103.789 4.44824 103.379 4.44824C102.969 4.44824 102.641 4.77637 102.641 5.18652C102.641 5.59668 102.969 5.9248 103.379 5.9248C103.789 5.9248 104.117 5.59668 104.117 5.18652ZM106.195 5.9248C106.141 4.94043 105.922 4.06543 105.211 3.35449C104.5 2.64355 103.625 2.4248 102.641 2.37012C101.629 2.31543 98.5938 2.31543 97.582 2.37012C96.5977 2.4248 95.75 2.64355 95.0117 3.35449C94.3008 4.06543 94.082 4.94043 94.0273 5.9248C93.9727 6.93652 93.9727 9.97168 94.0273 10.9834C94.082 11.9678 94.3008 12.8154 95.0117 13.5537C95.75 14.2646 96.5977 14.4834 97.582 14.5381C98.5938 14.5928 101.629 14.5928 102.641 14.5381C103.625 14.4834 104.5 14.2646 105.211 13.5537C105.922 12.8154 106.141 11.9678 106.195 10.9834C106.25 9.97168 106.25 6.93652 106.195 5.9248ZM104.883 12.0498C104.691 12.5967 104.254 13.0068 103.734 13.2256C102.914 13.5537 101 13.4717 100.125 13.4717C99.2227 13.4717 97.3086 13.5537 96.5156 13.2256C95.9688 13.0068 95.5586 12.5967 95.3398 12.0498C95.0117 11.2568 95.0938 9.34277 95.0938 8.44043C95.0938 7.56543 95.0117 5.65137 95.3398 4.83105C95.5586 4.31152 95.9688 3.90137 96.5156 3.68262C97.3086 3.35449 99.2227 3.43652 100.125 3.43652C101 3.43652 102.914 3.35449 103.734 3.68262C104.254 3.87402 104.664 4.31152 104.883 4.83105C105.211 5.65137 105.129 7.56543 105.129 8.44043C105.129 9.34277 105.211 11.2568 104.883 12.0498Z" fill="#222222"/>
<path d="M158.012 4.8584C157.848 4.20215 157.328 3.68262 156.699 3.51855C155.523 3.19043 150.875 3.19043 150.875 3.19043C150.875 3.19043 146.199 3.19043 145.023 3.51855C144.395 3.68262 143.875 4.20215 143.711 4.8584C143.383 6.00684 143.383 8.46777 143.383 8.46777C143.383 8.46777 143.383 10.9014 143.711 12.0771C143.875 12.7334 144.395 13.2256 145.023 13.3896C146.199 13.6904 150.875 13.6904 150.875 13.6904C150.875 13.6904 155.523 13.6904 156.699 13.3896C157.328 13.2256 157.848 12.7334 158.012 12.0771C158.34 10.9014 158.34 8.46777 158.34 8.46777C158.34 8.46777 158.34 6.00684 158.012 4.8584ZM149.344 10.6826V6.25293L153.227 8.46777L149.344 10.6826Z" fill="#222222"/>
<path d="M205.562 8.44043C205.562 4.69434 202.527 1.65918 198.781 1.65918C195.035 1.65918 192 4.69434 192 8.44043C192 11.3389 193.777 13.7725 196.293 14.7568C196.238 14.2373 196.184 13.417 196.32 12.8154C196.457 12.2959 197.113 9.45215 197.113 9.45215C197.113 9.45215 196.922 9.04199 196.922 8.44043C196.922 7.51074 197.469 6.7998 198.152 6.7998C198.727 6.7998 199 7.2373 199 7.75684C199 8.33105 198.617 9.20605 198.426 10.0264C198.289 10.6826 198.781 11.2295 199.438 11.2295C200.641 11.2295 201.57 9.97168 201.57 8.13965C201.57 6.49902 200.395 5.37793 198.754 5.37793C196.812 5.37793 195.691 6.82715 195.691 8.30371C195.691 8.90527 195.91 9.53418 196.184 9.8623C196.238 9.91699 196.238 9.99902 196.238 10.0537C196.184 10.2725 196.047 10.7373 196.047 10.8193C196.02 10.9561 195.938 10.9834 195.801 10.9287C194.953 10.5186 194.434 9.28809 194.434 8.27637C194.434 6.14355 195.992 4.1748 198.918 4.1748C201.27 4.1748 203.102 5.87012 203.102 8.1123C203.102 10.4365 201.625 12.3232 199.574 12.3232C198.891 12.3232 198.234 11.9678 198.016 11.5303C198.016 11.5303 197.688 12.8428 197.605 13.1436C197.441 13.7451 197.031 14.4834 196.758 14.9209C197.387 15.1396 198.07 15.2217 198.781 15.2217C202.527 15.2217 205.562 12.1865 205.562 8.44043Z" fill="#222222"/>
</svg>
